<svg xmlns="http://www.w3.org/2000/svg" width="600" height="320" viewBox="0 0 600 320">
<rect width="600" height="320" fill="white" rx="4"/>
<text x="300.0" y="18" text-anchor="middle" font-size="13" font-weight="600" fill="#1e293b">Comparative Performance — Full Pipeline (encode)</text>
<line x1="60" y1="260.0" x2="580" y2="260.0" stroke="#e2e8f0" stroke-width="1"/>
<text x="54" y="264.0" text-anchor="end" font-size="10" fill="#64748b">0.0s</text>
<line x1="60" y1="214.0" x2="580" y2="214.0" stroke="#e2e8f0" stroke-width="1"/>
<text x="54" y="218.0" text-anchor="end" font-size="10" fill="#64748b">60.9s</text>
<line x1="60" y1="168.0" x2="580" y2="168.0" stroke="#e2e8f0" stroke-width="1"/>
<text x="54" y="172.0" text-anchor="end" font-size="10" fill="#64748b">121.8s</text>
<line x1="60" y1="122.0" x2="580" y2="122.0" stroke="#e2e8f0" stroke-width="1"/>
<text x="54" y="126.0" text-anchor="end" font-size="10" fill="#64748b">182.7s</text>
<line x1="60" y1="76.0" x2="580" y2="76.0" stroke="#e2e8f0" stroke-width="1"/>
<text x="54" y="80.0" text-anchor="end" font-size="10" fill="#64748b">243.6s</text>
<line x1="60" y1="30.0" x2="580" y2="30.0" stroke="#e2e8f0" stroke-width="1"/>
<text x="54" y="34.0" text-anchor="end" font-size="10" fill="#64748b">304.5s</text>
<text x="112.0" y="276" text-anchor="middle" font-size="10" fill="#475569">c/v1.0.0</text>
<line x1="112.0" y1="258.50399619668394" x2="112.0" y2="258.4814811013013" stroke="#2563eb" stroke-width="1.5"/>
<line x1="112.0" y1="258.4408339162052" x2="112.0" y2="258.42184779913816" stroke="#2563eb" stroke-width="1.5"/>
<line x1="100.0" y1="258.50399619668394" x2="124.0" y2="258.50399619668394" stroke="#2563eb" stroke-width="1.5"/>
<line x1="100.0" y1="258.42184779913816" x2="124.0" y2="258.42184779913816" stroke="#2563eb" stroke-width="1.5"/>
<rect x="92.0" y="258.4408339162052" width="40" height="0.04064718509613385" fill="#2563eb" fill-opacity="0.25" stroke="#2563eb" stroke-width="1.5"/>
<line x1="92.0" y1="258.4480716375329" x2="132.0" y2="258.4480716375329" stroke="#2563eb" stroke-width="2"/>
<text x="216.0" y="276" text-anchor="middle" font-size="10" fill="#475569">c/v1.0.0-8k</text>
<line x1="216.0" y1="235.13140593933218" x2="216.0" y2="235.11897176121894" stroke="#2563eb" stroke-width="1.5"/>
<line x1="216.0" y1="234.98111473519236" x2="216.0" y2="234.7743291961525" stroke="#2563eb" stroke-width="1.5"/>
<line x1="204.0" y1="235.13140593933218" x2="228.0" y2="235.13140593933218" stroke="#2563eb" stroke-width="1.5"/>
<line x1="204.0" y1="234.7743291961525" x2="228.0" y2="234.7743291961525" stroke="#2563eb" stroke-width="1.5"/>
<rect x="196.0" y="234.98111473519236" width="40" height="0.13785702602658034" fill="#2563eb" fill-opacity="0.25" stroke="#2563eb" stroke-width="1.5"/>
<line x1="196.0" y1="235.05838103225142" x2="236.0" y2="235.05838103225142" stroke="#2563eb" stroke-width="2"/>
<circle cx="216.0" cy="234.72870134102962" r="2.5" fill="#2563eb" fill-opacity="0.6"/>
<circle cx="216.0" cy="233.26328644912337" r="2.5" fill="#2563eb" fill-opacity="0.6"/>
<text x="320.0" y="276" text-anchor="middle" font-size="10" fill="#475569">c/v1.1.0</text>
<line x1="320.0" y1="257.27197906840223" x2="320.0" y2="257.12072004939137" stroke="#2563eb" stroke-width="1.5"/>
<line x1="320.0" y1="256.67157434919625" x2="320.0" y2="256.6186747949064" stroke="#2563eb" stroke-width="1.5"/>
<line x1="308.0" y1="257.27197906840223" x2="332.0" y2="257.27197906840223" stroke="#2563eb" stroke-width="1.5"/>
<line x1="308.0" y1="256.6186747949064" x2="332.0" y2="256.6186747949064" stroke="#2563eb" stroke-width="1.5"/>
<rect x="300.0" y="256.67157434919625" width="40" height="0.44914570019511757" fill="#2563eb" fill-opacity="0.25" stroke="#2563eb" stroke-width="1.5"/>
<line x1="300.0" y1="256.81375998839775" x2="340.0" y2="256.81375998839775" stroke="#2563eb" stroke-width="2"/>
<text x="424.0" y="276" text-anchor="middle" font-size="10" fill="#475569">odin/dev-8k</text>
<line x1="424.0" y1="52.4728533984983" x2="424.0" y2="52.4728533984983" stroke="#2563eb" stroke-width="1.5"/>
<line x1="424.0" y1="50.90909090909091" x2="424.0" y2="50.90909090909091" stroke="#2563eb" stroke-width="1.5"/>
<line x1="412.0" y1="52.4728533984983" x2="436.0" y2="52.4728533984983" stroke="#2563eb" stroke-width="1.5"/>
<line x1="412.0" y1="50.90909090909091" x2="436.0" y2="50.90909090909091" stroke="#2563eb" stroke-width="1.5"/>
<rect x="404.0" y="50.90909090909091" width="40" height="1.5637624894073952" fill="#2563eb" fill-opacity="0.25" stroke="#2563eb" stroke-width="1.5"/>
<line x1="404.0" y1="50.90909090909091" x2="444.0" y2="50.90909090909091" stroke="#2563eb" stroke-width="2"/>
<text x="528.0" y="276" text-anchor="middle" font-size="10" fill="#475569">zig/simd_v1</text>
<line x1="528.0" y1="257.58586218360625" x2="528.0" y2="257.5735475857307" stroke="#2563eb" stroke-width="1.5"/>
<line x1="528.0" y1="257.5641206596194" x2="528.0" y2="257.5617854976266" stroke="#2563eb" stroke-width="1.5"/>
<line x1="516.0" y1="257.58586218360625" x2="540.0" y2="257.58586218360625" stroke="#2563eb" stroke-width="1.5"/>
<line x1="516.0" y1="257.5617854976266" x2="540.0" y2="257.5617854976266" stroke="#2563eb" stroke-width="1.5"/>
<rect x="508.0" y="257.5641206596194" width="40" height="0.009426926111302691" fill="#2563eb" fill-opacity="0.25" stroke="#2563eb" stroke-width="1.5"/>
<line x1="508.0" y1="257.56977982390475" x2="548.0" y2="257.56977982390475" stroke="#2563eb" stroke-width="2"/>
</svg>