<svg xmlns="http://www.w3.org/2000/svg" width="600" height="300" viewBox="0 0 600 300">
<rect width="600" height="300" fill="white" rx="4"/>
<text x="300.0" y="18" text-anchor="middle" font-size="13" font-weight="600" fill="#1e293b">Performance by Iteration</text>
<line x1="65" y1="230.0" x2="580" y2="230.0" stroke="#e2e8f0" stroke-width="1"/>
<text x="59" y="234.0" text-anchor="end" font-size="10" fill="#64748b">0.0s</text>
<line x1="65" y1="191.0" x2="580" y2="191.0" stroke="#e2e8f0" stroke-width="1"/>
<text x="59" y="195.0" text-anchor="end" font-size="10" fill="#64748b">63.4s</text>
<line x1="65" y1="152.0" x2="580" y2="152.0" stroke="#e2e8f0" stroke-width="1"/>
<text x="59" y="156.0" text-anchor="end" font-size="10" fill="#64748b">126.8s</text>
<line x1="65" y1="112.99999999999999" x2="580" y2="112.99999999999999" stroke="#e2e8f0" stroke-width="1"/>
<text x="59" y="116.99999999999999" text-anchor="end" font-size="10" fill="#64748b">190.3s</text>
<line x1="65" y1="73.99999999999997" x2="580" y2="73.99999999999997" stroke="#e2e8f0" stroke-width="1"/>
<text x="59" y="77.99999999999997" text-anchor="end" font-size="10" fill="#64748b">253.7s</text>
<line x1="65" y1="35.0" x2="580" y2="35.0" stroke="#e2e8f0" stroke-width="1"/>
<text x="59" y="39.0" text-anchor="end" font-size="10" fill="#64748b">317.1s</text>
<text x="65.0" y="248" text-anchor="middle" font-size="10" fill="#475569">#1</text>
<line x1="65.0" y1="35" x2="65.0" y2="230" stroke="#f1f5f9" stroke-width="1"/>
<text x="138.57142857142856" y="248" text-anchor="middle" font-size="10" fill="#475569">#2</text>
<line x1="138.57142857142856" y1="35" x2="138.57142857142856" y2="230" stroke="#f1f5f9" stroke-width="1"/>
<text x="212.14285714285714" y="248" text-anchor="middle" font-size="10" fill="#475569">#3</text>
<line x1="212.14285714285714" y1="35" x2="212.14285714285714" y2="230" stroke="#f1f5f9" stroke-width="1"/>
<text x="285.71428571428567" y="248" text-anchor="middle" font-size="10" fill="#475569">#4</text>
<line x1="285.71428571428567" y1="35" x2="285.71428571428567" y2="230" stroke="#f1f5f9" stroke-width="1"/>
<text x="359.2857142857143" y="248" text-anchor="middle" font-size="10" fill="#475569">#5</text>
<line x1="359.2857142857143" y1="35" x2="359.2857142857143" y2="230" stroke="#f1f5f9" stroke-width="1"/>
<text x="432.8571428571429" y="248" text-anchor="middle" font-size="10" fill="#475569">#6</text>
<line x1="432.8571428571429" y1="35" x2="432.8571428571429" y2="230" stroke="#f1f5f9" stroke-width="1"/>
<text x="506.4285714285714" y="248" text-anchor="middle" font-size="10" fill="#475569">#7</text>
<line x1="506.4285714285714" y1="35" x2="506.4285714285714" y2="230" stroke="#f1f5f9" stroke-width="1"/>
<text x="580.0" y="248" text-anchor="middle" font-size="10" fill="#475569">#8</text>
<line x1="580.0" y1="35" x2="580.0" y2="230" stroke="#f1f5f9" stroke-width="1"/>
<circle cx="65.0" cy="227.83419578974997" r="4" fill="#2563eb" stroke="white" stroke-width="1.5"/>
<line x1="138.57142857142856" y1="229.01151729869042" x2="432.8571428571429" y2="228.95880207530303" stroke="#dc2626" stroke-width="2"/>
<circle cx="138.57142857142856" cy="229.01151729869042" r="4" fill="#dc2626" stroke="white" stroke-width="1.5"/>
<circle cx="432.8571428571429" cy="228.95880207530303" r="4" fill="#dc2626" stroke="white" stroke-width="1.5"/>
<circle cx="212.14285714285714" cy="209.53702388880652" r="4" fill="#16a34a" stroke="white" stroke-width="1.5"/>
<circle cx="285.71428571428567" cy="216.77977348503555" r="4" fill="#9333ea" stroke="white" stroke-width="1.5"/>
<circle cx="359.2857142857143" cy="60.43478260869563" r="4" fill="#ea580c" stroke="white" stroke-width="1.5"/>
<circle cx="580.0" cy="229.98289641736295" r="4" fill="#0891b2" stroke="white" stroke-width="1.5"/>
<line x1="69" y1="274" x2="81" y2="274" stroke="#2563eb" stroke-width="2"/>
<circle cx="75" cy="274" r="3" fill="#2563eb"/>
<text x="85" y="278" font-size="9" fill="#475569">c/v0.2.0 (arrange)</text>
<line x1="192.60000000000002" y1="274" x2="204.60000000000002" y2="274" stroke="#dc2626" stroke-width="2"/>
<circle cx="198.60000000000002" cy="274" r="3" fill="#dc2626"/>
<text x="208.60000000000002" y="278" font-size="9" fill="#475569">c/v1.0.0 (encode)</text>
<line x1="311.0" y1="274" x2="323.0" y2="274" stroke="#16a34a" stroke-width="2"/>
<circle cx="317.0" cy="274" r="3" fill="#16a34a"/>
<text x="327.0" y="278" font-size="9" fill="#475569">c/v1.0.0-8k (encode)</text>
<line x1="445.0" y1="274" x2="457.0" y2="274" stroke="#9333ea" stroke-width="2"/>
<circle cx="451.0" cy="274" r="3" fill="#9333ea"/>
<text x="461.0" y="278" font-size="9" fill="#475569">odin/dev (encode)</text>
<line x1="69" y1="288" x2="81" y2="288" stroke="#ea580c" stroke-width="2"/>
<circle cx="75" cy="288" r="3" fill="#ea580c"/>
<text x="85" y="292" font-size="9" fill="#475569">odin/dev-8k (encode)</text>
<line x1="203.0" y1="288" x2="215.0" y2="288" stroke="#0891b2" stroke-width="2"/>
<circle cx="209.0" cy="288" r="3" fill="#0891b2"/>
<text x="219.0" y="292" font-size="9" fill="#475569">zig/dev (encode)</text>
</svg>